<svg width="35" height="35" viewBox="0 0 35 35" fill="none" xmlns="http://www.w3.org/2000/svg">
<path d="M35 17.5C35 27.165 27.165 35 17.5 35C7.83502 35 0 27.165 0 17.5C0 7.83502 7.83502 0 17.5 0C27.165 0 35 7.83502 35 17.5ZM34 17.5C34 8.3873 26.6127 1 17.5 1C8.3873 1 1 8.3873 1 17.5C1 26.6127 8.3873 34 17.5 34C26.6127 34 34 26.6127 34 17.5ZM17.5039 23.999V24H17.5029L17 24.5029L11.0107 18.5137L11.7188 17.8066L16.5039 22.5928V11H17.5039V22.585L22.293 17.7959L23 18.5029L17.5039 23.999Z" fill="#EDEADC"/>
</svg>
